# xmcd
#
# Track frame offsets: 
#        150
#        16610
#        33704
#        45859
#        60708
#        82056
#        92896
#        113936
#        131917
#        146233
#        161937
#        178767
#        194331
#        207985
#
# Disc length: 2951 seconds
#
# Revision: 0
# Processed by: cddbd v1.5.2PL0 Copyright (c) Steve Scherf et al.
# Submitted via: ExactAudioCopy v0.95b3
#
DISCID=ce0b850e
DTITLE=Townes van Zandt - Pancho and Lefty
DYEAR=2006
DGENRE=Blues
TTITLE0=Pancho and Lefty
TTITLE1=Loretta
TTITLE2=Tecumseh Valley
TTITLE3=Cocaine Blues
TTITLE4=For the Sake of the Song
TTITLE5=Waitin Round to Die
TTITLE6=Sad Cinderella
TTITLE7=Rake
TTITLE8=High Low and in Between
TTITLE9=No Place to Fall
TTITLE10=At my Window
TTITLE11=Two Girls
TTITLE12=St'John The Gambler
TTITLE13=Pueblo Waltz
EXTD=
EXTT0=
EXTT1=
EXTT2=
EXTT3=
EXTT4=
EXTT5=
EXTT6=
EXTT7=
EXTT8=
EXTT9=
EXTT10=
EXTT11=
EXTT12=
EXTT13=
PLAYORDER=
